<svg xmlns="http://www.w3.org/2000/svg" width="16" height="15" viewBox="0 0 16 15">
    <g fill="none" fill-rule="evenodd">
        <path fill="#000" stroke="#FFF" stroke-width="4" d="M17.338.01c-.26.039-.499.162-.68.353C12.77 4.26 9.86 7.477 6.149 11.238L1.922 7.67A1.167 1.167 0 1 0 .411 9.448l.007.006 5.05 4.273c.464.39 1.15.359 1.577-.073C11.213 9.478 14.191 6.13 18.31 2.002A1.165 1.165 0 0 0 17.34.01"/>
        <path fill="#FF7100" d="M14.281 3.311c-3.333 3.341-5.829 6.099-9.01 9.324l-3.622-3.06A1 1 0 1 0 .352 11.1l4.335 3.668a.999.999 0 0 0 1.353-.062c3.573-3.58 6.126-6.451 9.657-9.99a.999.999 0 0 0-.833-1.707 1.002 1.002 0 0 0-.583.302z"/>
    </g>
</svg>
