<?xml version="1.0" encoding="UTF-8" standalone="no"?>
<svg width="110px" height="46px" viewBox="0 0 110 46" version="1.1" xmlns="http://www.w3.org/2000/svg" xmlns:xlink="http://www.w3.org/1999/xlink">
    <!-- Generator: sketchtool 3.7 (28169) - http://www.bohemiancoding.com/sketch -->
    <title>ED5B1CC5-6BE3-41B4-B51B-77964D37E38C</title>
    <desc>Created with sketchtool.</desc>
    <defs>
        <rect id="path-1" x="0" y="0" width="106" height="42" rx="3.55555556"></rect>
        <filter x="-50%" y="-50%" width="200%" height="200%" filterUnits="objectBoundingBox" id="filter-2">
            <feOffset dx="0" dy="0" in="SourceAlpha" result="shadowOffsetOuter1"></feOffset>
            <feGaussianBlur stdDeviation="1" in="shadowOffsetOuter1" result="shadowBlurOuter1"></feGaussianBlur>
            <feColorMatrix values="0 0 0 0 0   0 0 0 0 0   0 0 0 0 0  0 0 0 0.4 0" type="matrix" in="shadowBlurOuter1"></feColorMatrix>
        </filter>
    </defs>
    <g id="Page-1" stroke="none" stroke-width="1" fill="none" fill-rule="evenodd">
        <g id="holic-badge" transform="translate(-594.000000, -39.000000)">
            <g id="ic_common_profile_holic" transform="translate(596.000000, 41.000000)">
                <g id="Rectangle-360">
                    <use fill="black" fill-opacity="1" filter="url(#filter-2)" xlink:href="#path-1"></use>
                    <use fill="#FA5827" fill-rule="evenodd" xlink:href="#path-1"></use>
                </g>
                <g id="Group-Copy-4" opacity="0.3" transform="translate(20.109375, 10.468750)" fill="#000000">
                    <polygon id="Shape" points="8.890625 0.53125 8.890625 9.37740385 4.890625 9.37740385 4.890625 0.53125 0.890625 0.53125 0.890625 23.53125 4.890625 23.53125 4.890625 13.53125 8.890625 13.53125 8.890625 23.53125 12.890625 23.53125 12.890625 0.53125"></polygon>
                    <path d="M24.7514561,0.53125 L23.0371703,0.53125 C18.3796205,0.53125 17.9382976,4.33608271 17.8943132,5.83894231 L17.8943132,18.2235577 C17.8981773,18.4011385 17.5370949,23.53125 23.0371703,23.53125 L24.7514561,23.53125 C30.0144982,23.53125 29.8941374,18.4011385 29.8943132,18.2235577 L29.8943132,5.83894231 C29.7737766,4.37883364 29.2120929,0.53125 24.7514561,0.53125 Z M24.5597505,19.53125 L23.2251877,19.53125 C23.8551484,19.53125 21.890625,19.4920855 21.890625,17.8645833 L21.890625,17.8645833 L21.890625,6.19791667 C21.890625,4.57041449 23.8551484,4.53125 23.2251877,4.53125 L24.5597505,4.53125 C23.9292813,4.53125 25.8938047,4.57041449 25.8943132,6.19791667 L25.8943132,17.8645833 C25.9308711,19.4920855 23.9292813,19.53125 24.5597505,19.53125 L24.5597505,19.53125 Z" id="Shape"></path>
                    <polygon id="Shape" points="38.890625 19.53125 38.890625 0.53125 34.890625 0.53125 34.890625 23.53125 38.5572917 23.53125 45.890625 23.53125 45.890625 19.53125"></polygon>
                    <rect id="Rectangle-path" x="48.890625" y="0.53125" width="4" height="23"></rect>
                    <path d="M64.7493481,0.53125 L63.0355891,0.53125 C57.5371985,0.53125 57.8981752,5.69978933 57.8943122,5.83894231 L57.8943122,18.2235577 C57.9382838,19.784059 58.4596946,23.53125 63.0355891,23.53125 L64.7493481,23.53125 C69.7301909,23.53125 69.890625,18.9226358 69.890625,18.2235577 L69.890625,14.53125 L65.890625,14.53125 L65.890625,18.2235584 L64.7493481,19.53125 L63.0355891,19.53125 L61.890625,18.2235577 L61.890625,5.83894231 L63.0355891,4.53125 L64.7493482,4.53125 L65.890625,5.83894231 L65.890625,8.53125 L69.890625,8.53125 L69.890625,5.83894231 C69.890625,5.13986423 69.7301909,0.53125 64.7493481,0.53125 Z" id="Shape"></path>
                </g>
                <g id="Group" transform="translate(16.109375, 8.468750)" fill="#FFFFFF">
                    <polygon id="Shape" points="10.890625 0.53125 10.890625 9.37740385 6.890625 9.37740385 6.890625 0.53125 2.890625 0.53125 2.890625 23.53125 6.890625 23.53125 6.890625 13.53125 10.890625 13.53125 10.890625 23.53125 14.890625 23.53125 14.890625 0.53125"></polygon>
                    <path d="M26.7514561,0.53125 L25.0371703,0.53125 C20.3796205,0.53125 19.9382976,4.33608271 19.8943132,5.83894231 L19.8943132,18.2235577 C19.8981773,18.4011385 19.5370949,23.53125 25.0371703,23.53125 L26.7514561,23.53125 C32.0144982,23.53125 31.8941374,18.4011385 31.8943132,18.2235577 L31.8943132,5.83894231 C31.7737766,4.37883364 31.2120929,0.53125 26.7514561,0.53125 Z M26.5597505,19.53125 L25.2251877,19.53125 C25.8551484,19.53125 23.890625,19.4920855 23.890625,17.8645833 L23.890625,17.8645833 L23.890625,6.19791667 C23.890625,4.57041449 25.8551484,4.53125 25.2251877,4.53125 L26.5597505,4.53125 C25.9292813,4.53125 27.8938047,4.57041449 27.8943132,6.19791667 L27.8943132,17.8645833 C27.9308711,19.4920855 25.9292813,19.53125 26.5597505,19.53125 L26.5597505,19.53125 Z" id="Shape"></path>
                    <polygon id="Shape" points="40.890625 19.53125 40.890625 0.53125 36.890625 0.53125 36.890625 23.53125 40.5572917 23.53125 47.890625 23.53125 47.890625 19.53125"></polygon>
                    <rect id="Rectangle-path" x="50.890625" y="0.53125" width="4" height="23"></rect>
                    <path d="M66.7493481,0.53125 L65.0355891,0.53125 C59.5371985,0.53125 59.8981752,5.69978933 59.8943122,5.83894231 L59.8943122,18.2235577 C59.9382838,19.784059 60.4596946,23.53125 65.0355891,23.53125 L66.7493481,23.53125 C71.7301909,23.53125 71.890625,18.9226358 71.890625,18.2235577 L71.890625,14.53125 L67.890625,14.53125 L67.890625,18.2235584 L66.7493481,19.53125 L65.0355891,19.53125 L63.890625,18.2235577 L63.890625,5.83894231 L65.0355891,4.53125 L66.7493482,4.53125 L67.890625,5.83894231 L67.890625,8.53125 L71.890625,8.53125 L71.890625,5.83894231 C71.890625,5.13986423 71.7301909,0.53125 66.7493481,0.53125 Z" id="Shape"></path>
                </g>
            </g>
        </g>
    </g>
</svg>