<svg xmlns="http://www.w3.org/2000/svg" xmlns:xlink="http://www.w3.org/1999/xlink" width="45" height="45" viewBox="0 0 45 45">
    <defs>
        <path id="a" d="M13 12h20v22H13z"/>
    </defs>
    <g fill="none" fill-rule="evenodd" transform="translate(-3)">
        <path d="M0 0h45v45H0z"/>
        <mask id="b" fill="#fff">
            <use xlink:href="#a"/>
        </mask>
        <path fill="#FFF" d="M29.618 13.06c1.29 0 2.338 1.065 2.338 2.373 0 1.31-1.048 2.374-2.338 2.374-1.288 0-2.336-1.065-2.336-2.374 0-1.309 1.047-2.373 2.336-2.373m0 15.133c1.29 0 2.338 1.065 2.338 2.373 0 1.31-1.048 2.374-2.338 2.374-1.288 0-2.336-1.065-2.336-2.374 0-1.309 1.047-2.373 2.336-2.373m-13.237-2.82c-1.289 0-2.337-1.064-2.337-2.373 0-1.309 1.048-2.374 2.337-2.374 1.289 0 2.337 1.065 2.337 2.374 0 1.309-1.048 2.373-2.337 2.373m0-5.807C14.517 19.566 13 21.106 13 23c0 1.893 1.517 3.433 3.381 3.433a3.356 3.356 0 0 0 2.652-1.31l7.422 4.243a3.458 3.458 0 0 0-.217 1.2c0 1.894 1.516 3.434 3.38 3.434C31.483 34 33 32.46 33 30.566c0-1.893-1.517-3.433-3.382-3.433a3.356 3.356 0 0 0-2.651 1.31L19.545 24.2c.138-.374.217-.777.217-1.2 0-.423-.08-.826-.217-1.2l7.422-4.243a3.356 3.356 0 0 0 2.651 1.31c1.865 0 3.382-1.54 3.382-3.434C33 13.54 31.483 12 29.618 12c-1.864 0-3.38 1.54-3.38 3.433 0 .423.079.826.217 1.2l-7.423 4.243a3.354 3.354 0 0 0-2.65-1.31" mask="url(#b)"/>
    </g>
</svg>
