<svg xmlns="http://www.w3.org/2000/svg" width="40" height="40" viewBox="0 0 40 40">
    <path fill="#FFF" fill-rule="evenodd" d="M27.253 18.93l.247-.255.242.25a.833.833 0 0 0 1.178.005.835.835 0 0 0 .01-1.183l-.255-.247.25-.242a.837.837 0 0 0-1.183-1.183l-.242.25-.242-.25a.837.837 0 0 0-1.183 1.183l.25.242-.25.242a.832.832 0 0 0-.005 1.178.835.835 0 0 0 1.183.01zm-15 0l.247-.255.242.25a.833.833 0 0 0 1.178.005.835.835 0 0 0 .01-1.183l-.255-.247.25-.242a.837.837 0 0 0-1.183-1.183l-.242.25-.242-.25a.837.837 0 0 0-1.183 1.183l.25.242-.25.242c-.35.3-.424.785-.124 1.134.027.032.057.062.124.049a.833.833 0 0 0 1.178.005zM1.667 20c0 10.125 8.208 18.333 18.333 18.333 10.125 0 18.333-8.208 18.333-18.333C38.333 9.875 30.125 1.667 20 1.667 9.875 1.667 1.667 9.875 1.667 20zM20 0c11.046 0 20 8.954 20 20s-8.954 20-20 20S0 31.046 0 20 8.954 0 20 0zm-4.883 27.092a.833.833 0 0 1 .291-1.142 8.91 8.91 0 0 1 9.167 0 .833.833 0 0 1-.408 1.55.836.836 0 0 1-.425-.117 7.266 7.266 0 0 0-7.5 0 .833.833 0 0 1-1.125-.291z"/>
</svg>
