<?xml version="1.0" encoding="utf-8"?>
<!-- Generator: Adobe Illustrator 25.0.1, SVG Export Plug-In . SVG Version: 6.00 Build 0)  -->
<svg version="1.1" id="레이어_1" xmlns="http://www.w3.org/2000/svg" xmlns:xlink="http://www.w3.org/1999/xlink" x="0px"
	 y="0px" viewBox="0 0 1366 768" style="enable-background:new 0 0 1366 768;" xml:space="preserve">
<style type="text/css">
	.st0{fill:#FFFFFF;stroke:#F0F0F0;stroke-width:4;stroke-miterlimit:10;}
	.st1{font-family:'Helvetica';}
	.st2{font-size:48px;}
	.st3{fill:#F0F0F0;}
	.st4{fill:none;stroke:#F0F0F0;stroke-width:4;stroke-miterlimit:10;}
	.st5{fill:#FFFFFF;stroke:#F0F0F0;stroke-width:2;stroke-miterlimit:10;}
	.st6{fill:none;stroke:#F0F0F0;stroke-width:2;stroke-miterlimit:10;}
	.st7{fill:none;stroke:#F0F0F0;stroke-width:3;stroke-miterlimit:10;}
	.st8{fill:none;stroke:#F0F0F0;stroke-width:5;stroke-miterlimit:10;}
	.st9{font-family:'AkzidenzGroteskBQ-Medium';}
	.st10{font-size:2.89px;}
</style>
<g id="레이어_1_1_">
	<path class="st0" d="M635.5,291"/>
	<text transform="matrix(1 0 0 1 448.9741 372.4102)" class="st1 st2">MeanByMin</text>
	<text transform="matrix(1 0 0 1 446.9741 375.4102)" class="st3 st1 st2">MeanByMin</text>
	<path class="st4" d="M635.5,291h68.8c10.9,0,19.7,8.8,19.7,19.7v92.7c0,10.9-8.8,19.7-19.7,19.7H446.7c-10.9,0-19.7-8.8-19.7-19.7
		v-92.7c0-10.9,8.8-19.7,19.7-19.7h68.5"/>
</g>
<g id="레이어_2_1_">
	<polyline class="st5" points="598.3,255 604.2,267 619.5,298.4 	"/>
	<polyline class="st6" points="604.2,267 583.8,298.4 537.3,298.4 544.9,276.7 	"/>
	<path class="st6" d="M521,275.3h24.6h11.2c0,0-0.6-2.9,3.5-6.7c0,0-4.2,1.5-16.6,0.6c-12.4-0.8-10.9-0.6-10.9-0.6
		S524.1,268.4,521,275.3z"/>
	<path class="st7" d="M555.5,284.8c0,0-10.8-14.4-28.5-6.5c-13,6.9-12.1,20.1-12.1,20.1"/>
	<circle class="st6" cx="537.3" cy="298.4" r="5.3"/>
	<circle class="st6" cx="619.5" cy="298.4" r="5.3"/>
	<circle class="st8" cx="537.3" cy="298.4" r="16.8"/>
	<circle class="st8" cx="619.5" cy="298.4" r="16.8"/>
	<line class="st7" x1="541.4" y1="286.8" x2="545.5" y2="275.3"/>
	<path class="st6" d="M559.6,275.6h32.9c0,0,2.3-3.8,2.3-7c0-1-0.3-1.8-0.6-2.5c-0.8-1.6-2.4-2.8-4.1-3.3c-1.6-0.4-4.3-0.9-8.5-0.9
		C570.5,261.9,559.4,267.7,559.6,275.6z"/>
	<path class="st7" d="M637.6,285c0,0-10-14.8-28-6.9c-13.9,7.4-13,20.3-13,20.3"/>
	<line class="st7" x1="607.2" y1="273.1" x2="614.6" y2="288.4"/>
	<path class="st6" d="M599.3,256.9h-7c0,0-1.7,0.2-1.7,2c0,1.8,2.1,2.2,2.1,2.2"/>
	<path class="st6" d="M612.4,267c0,0,3.5-4.8,0-9.7c0,0-7.3,0.3-7.4,4.6S612.4,267,612.4,267z"/>
	<path class="st6" d="M576.7,292.6c-0.5,1.7-2,3-3.9,3c-2.2,0-4-1.8-4-4s1.8-4,4-4c0.7,0,1.3,0.2,1.9,0.5"/>
	<circle class="st6" cx="580.9" cy="288.4" r="5.9"/>
	<path class="st6" d="M559.6,290.5c-2.5,0-3,2.3-3,3.4s1.5,3.1,3,3.1s5.3-1.5,6.3-2.3c1-0.8,0-1.9,0-1.9S561.7,290.5,559.6,290.5z"
		/>
	<path class="st6" d="M569,279.4h-10.3c0,0-1.2,0.8,0,1.7H569C569,281,570.3,280.1,569,279.4z"/>
	<path class="st6" d="M569,282.5h-10.3c0,0-1.2,0.8,0,1.7H569C569,284.2,570.3,283.2,569,282.5z"/>
	<path class="st6" d="M569,285.6h-10.3c0,0-1.2,0.8,0,1.7H569C569,287.3,570.3,286.4,569,285.6z"/>
	<text transform="matrix(1.0616 0 0 1 578.6152 270.3512)" class="st3 st9 st10">TRIUMPH</text>
</g>
</svg>
